<svg id="Calque_1" data-name="Calque 1" xmlns="http://www.w3.org/2000/svg" viewBox="0 0 185 130"><defs><style>.cls-1{fill:#fff;}.cls-2{fill:#c0c0bf;}</style></defs><rect id="Rectangle_192" data-name="Rectangle 192" class="cls-1" width="185" height="130"/><path id="Tracé_47" data-name="Tracé 47" class="cls-2" d="M131.17,86.78l.06-.08.1-.13s0-.06.07-.1a1.25,1.25,0,0,0,.08-.12l.07-.11.07-.12a.41.41,0,0,0,.06-.11l.08-.13.05-.11.07-.13.05-.12s0-.09,0-.13l.05-.12.05-.14a.49.49,0,0,0,0-.11l0-.14a.84.84,0,0,0,0-.12s0-.1,0-.15a.36.36,0,0,0,0-.11.83.83,0,0,0,0-.15.43.43,0,0,1,0-.11l0-.17s0-.06,0-.09a1.37,1.37,0,0,0,0-.19s0-.05,0-.08,0-.15,0-.22v0a5,5,0,0,0,0-.77h0a4.29,4.29,0,0,0-.07-.5h0c0-.08,0-.16-.05-.24s0-.17-.07-.25,0,0,0,0,0-.13-.07-.2a1,1,0,0,1,0-.1l-.06-.15s0-.07-.05-.1,0-.1-.07-.14a.93.93,0,0,1,0-.1l-.08-.14-.06-.1-.09-.13-.07-.09-.1-.14-.06-.08-.13-.15-.06-.06c-.06-.07-.13-.13-.2-.2L99.59,51.14l7.3-9a8.15,8.15,0,0,1,5.79-3l4.89-.31a10.32,10.32,0,0,0,7.67-4.47l3.87-5.68a21.78,21.78,0,0,0,3.47-15.89,3.94,3.94,0,0,0-1.26-2.27l-.24-.19-.05,0-.2-.14-.06,0-.26-.15-.27-.12-.07,0L130,9.69l-.08,0-.29-.08-.31-.05-.37,0-.6,0h-.83l-.46,0h-.14l-.59,0h0a21.79,21.79,0,0,0-12.72,5.32l-5.18,4.52a10.37,10.37,0,0,0-3.52,8.14l.28,4.9a8.1,8.1,0,0,1-.41,3.05c0,.1-.07.2-.11.31l0,.09c0,.09-.07.19-.11.28l0,.1c0,.09-.08.18-.13.27l0,0,0,.09-.13.23h0L104,37a1.76,1.76,0,0,1-.14.23.67.67,0,0,1-.09.14,1.37,1.37,0,0,1-.13.2l-.06.08-.06.08-.13.17a2.33,2.33,0,0,1-.16.2l-.1.12,0,.05-.24.26L94.8,46.78l-6.62-6c-.12-.11-.24-.23-.35-.35l0,0c-.1-.11-.21-.22-.3-.34l0,0-.17-.21A8.12,8.12,0,0,1,86,37.29a.5.5,0,0,1,0-.13,2.17,2.17,0,0,1-.07-.24c0-.05,0-.11,0-.16a1.74,1.74,0,0,0,0-.22l0-.17a1.24,1.24,0,0,1,0-.22,1.22,1.22,0,0,1,0-.17c0-.06,0-.15,0-.22a1.1,1.1,0,0,1,0-.18,2,2,0,0,1,0-.23c0-.06,0-.11,0-.16s0-.26,0-.39h0l0-4.91a4.71,4.71,0,0,0,0-.53c0-.06,0-.12,0-.18s0-.24,0-.36l0-.2-.06-.35,0-.18c-.07-.33-.15-.65-.25-1A4.13,4.13,0,0,0,85,26.7l0-.09c0-.13-.09-.25-.15-.38a1.11,1.11,0,0,0-.07-.16l-.12-.29-.09-.18a2.1,2.1,0,0,0-.13-.26c0-.07-.07-.13-.1-.19l-.14-.25L84,24.72l-.15-.24-.12-.17-.17-.25-.12-.16-.2-.25-.1-.13-.33-.38-17-14.25a1.51,1.51,0,0,0-.26-.18h0l-.15-.08,0,0-.13,0h-.05l-.13,0h0l-.23,0h-.25l-.15,0h0l-.11,0h0l-.09,0,0,0-.09,0,0,0-.08,0,0,0-.08.06,0,0-.11.1a1.7,1.7,0,0,0,0,2.38L76.52,24.3a1.29,1.29,0,0,1,.16.17l0,.06.09.14a.43.43,0,0,1,0,.07.83.83,0,0,1,.07.13l0,.07c0,.07,0,.13.07.19a2.68,2.68,0,0,1,.07.27c0,.05,0,.09,0,.14a1.27,1.27,0,0,1,0,.39h0a1,1,0,0,1,0,.17s0,0,0,0l0,.13,0,0a2.07,2.07,0,0,1-.5.84l-.63.63L60.59,12.51a1.25,1.25,0,1,0-1.76,1.77h0l15.3,15.28-.94.94L57.89,15.21a1.25,1.25,0,0,0-1.76,0h0a1.25,1.25,0,0,0,0,1.76h0l15.29,15.3-.63.63a2,2,0,0,1-2.88,0h0L55,20a1.68,1.68,0,0,0-2.47,2.27l14.26,17a10.3,10.3,0,0,0,6.74,2.73h4.91a8.22,8.22,0,0,1,4,1h0a.57.57,0,0,0,.13.08l.19.12.13.08.2.14.11.08,0,0,.25.2.06,0,.22.19h0a.39.39,0,0,0,.1.08l.19.19.09.08.27.28,6.08,6.68L62.48,80c-1.95,2-1.48,5.56.62,7.43s5.67,1.9,7.45-.27L95.26,56.51l28.1,30.86a4.5,4.5,0,0,0,2,1.23h0l.24.06h0l.25,0h0a5.34,5.34,0,0,0,1.26.07h0a5.74,5.74,0,0,0,1.43-.27h0l.31-.11h0a3.49,3.49,0,0,0,.34-.15h0l.37-.19h0a6.65,6.65,0,0,0,.56-.36h0l0,0a5.07,5.07,0,0,0,.56-.48L131,87l.06-.06Z"/></svg>