<svg id="Calque_1" data-name="Calque 1" xmlns="http://www.w3.org/2000/svg" viewBox="0 0 13 43"><defs><style>.cls-1{fill:#a77f4d;}</style></defs><path class="cls-1" d="M11.61,0a1.35,1.35,0,0,0-1.38,1.32V12.1H7.89V1.32A1.35,1.35,0,0,0,6.5,0h0A1.35,1.35,0,0,0,5.11,1.32V12.1H2.77V1.32A1.35,1.35,0,0,0,1.39,0h0A1.35,1.35,0,0,0,0,1.32V12.1H0a3.16,3.16,0,0,0,3.23,3.08H4.87L4.31,40.74A2.22,2.22,0,0,0,6.54,43h0a2.23,2.23,0,0,0,2.24-2.28L8,15.18h1.8A3.16,3.16,0,0,0,13,12.1h0V1.32A1.35,1.35,0,0,0,11.61,0Z" transform="translate(0 0)"/></svg>