<?xml version="1.0" encoding="utf-8"?>
<!-- Generator: Adobe Illustrator 24.1.1, SVG Export Plug-In . SVG Version: 6.00 Build 0)  -->
<svg version="1.1" id="Calque_1" xmlns="http://www.w3.org/2000/svg" xmlns:xlink="http://www.w3.org/1999/xlink" x="0px" y="0px"
	 viewBox="0 0 320 86" style="enable-background:new 0 0 320 86;" xml:space="preserve">
<style type="text/css">
	.st0{fill:#A77F4D;}
	.st1{opacity:0.21;fill:#030405;enable-background:new    ;}
	.st2{fill:#4C4C4F;}
</style>
<g id="Groupe_13">
	<g id="Groupe_9">
		<path id="Tracé_6" class="st0" d="M43,78.1C23.6,78.1,7.9,62.4,7.9,43S23.6,7.9,43,7.9l0,0V0l0,0C19.3,0,0,19.2,0,43
			c0,11.4,4.5,22.3,12.6,30.4c16.8,16.8,44,16.8,60.8,0C81.5,65.3,86,54.4,86,43h-7.9C78.1,62.4,62.4,78.1,43,78.1z"/>
		<rect id="Rectangle_7" x="15.5" y="35.5" class="st0" width="70.5" height="7.5"/>
		<g id="Groupe_8">
			<path id="Tracé_7" class="st0" d="M43,20.2v-7.9c-17,0-30.7,13.7-30.7,30.7h7.9C20.2,30.4,30.4,20.2,43,20.2z"/>
			<path id="Tracé_8" class="st0" d="M65.8,43c0,12.6-10.2,22.8-22.8,22.8v7.9C60,73.7,73.7,60,73.7,43c0,0,0,0,0,0H65.8z"/>
		</g>
		<path id="Tracé_9" class="st1" d="M73.6,45.7c0-0.9,0.1-1.8,0.1-2.7h-7.9c0,0.9,0,1.8-0.1,2.7H73.6z"/>
		<path id="Tracé_10" class="st1" d="M86,45.7c0-0.9,0.1-1.8,0.1-2.7h-7.9c0,0.9,0,1.8-0.1,2.7L86,45.7z"/>
	</g>
	<g id="Groupe_12">
		<g id="Groupe_10">
			<path id="Tracé_11" class="st2" d="M119.1,38.6c-1.1,1.2-2.5,2.1-4,2.7c-1.9,0.6-3.8,1-5.8,0.9c-2,0-4.1-0.5-5.8-1.5
				c-1.7-1-3-2.5-3.9-4.2c-1-2-1.4-4.3-1.4-6.5v-1.7c-0.1-2.3,0.4-4.6,1.3-6.7c0.8-1.8,2.1-3.3,3.7-4.3c4.1-2.2,9.1-2,12.9,0.7
				c1.8,1.6,2.9,3.9,3,6.3h-5.2c-0.1-1.2-0.7-2.4-1.6-3.2c-0.9-0.7-2.1-1.1-3.3-1c-1.6-0.1-3.2,0.7-4.1,2c-1.1,1.8-1.6,3.9-1.4,6
				v1.6c0,2.7,0.5,4.7,1.5,6.1c1.1,1.4,2.8,2.2,4.5,2.1c2,0,3.4-0.4,4.3-1.3v-4.4H109v-3.9h10.1L119.1,38.6z"/>
			<path id="Tracé_12" class="st2" d="M122.2,32.2c0-1.8,0.3-3.5,1.1-5.1c0.7-1.4,1.8-2.6,3.1-3.4c1.5-0.8,3.1-1.3,4.8-1.2
				c2.3-0.1,4.6,0.8,6.3,2.4c1.7,1.7,2.7,4,2.7,6.4v1.3c0.1,2.6-0.8,5.1-2.5,7c-1.7,1.8-4.1,2.8-6.6,2.7c-2.5,0.1-4.9-0.9-6.6-2.6
				c-1.7-2-2.6-4.6-2.5-7.2L122.2,32.2z M127.3,32.5c-0.1,1.5,0.2,2.9,1,4.2c1.2,1.6,3.5,1.9,5.1,0.7c0.3-0.2,0.5-0.4,0.7-0.7
				c0.8-1.4,1.1-3,1-4.6c0.1-1.4-0.2-2.9-1-4.1c-0.7-1-1.8-1.5-2.9-1.5c-1.1,0-2.2,0.5-2.9,1.5C127.6,29.4,127.2,30.9,127.3,32.5
				L127.3,32.5z"/>
			<path id="Tracé_13" class="st2" d="M154.2,27.6c-0.6-0.1-1.2-0.1-1.8-0.1c-1.9,0-3.2,0.7-3.8,2v12.4h-5.1V22.8h4.8l0.1,2.3
				c0.8-1.6,2.4-2.6,4.3-2.6c0.5,0,1.1,0.1,1.6,0.2L154.2,27.6z"/>
			<path id="Tracé_14" class="st2" d="M167.2,41.9c-0.3-0.5-0.4-1.1-0.5-1.7c-1.2,1.4-3,2.1-4.8,2.1c-1.7,0.1-3.4-0.5-4.6-1.6
				c-1.2-1-1.9-2.5-1.8-4.1c-0.1-1.8,0.8-3.6,2.2-4.7c1.9-1.2,4.2-1.8,6.5-1.6h2.3v-1.1c0-0.8-0.2-1.5-0.7-2.1
				c-0.6-0.6-1.3-0.9-2.1-0.8c-0.7,0-1.4,0.2-2,0.6c-0.5,0.4-0.8,1-0.7,1.7h-5.1c0-1.1,0.3-2.2,1-3.1c0.7-1,1.7-1.8,2.9-2.2
				c1.3-0.6,2.8-0.8,4.2-0.8c2-0.1,4,0.5,5.6,1.8c1.4,1.3,2.2,3.1,2.1,5v8.3c-0.1,1.4,0.2,2.8,0.8,4.1v0.3L167.2,41.9z M162.9,38.3
				c0.7,0,1.4-0.2,2.1-0.5c0.6-0.3,1.1-0.8,1.4-1.3v-3.3h-1.9c-2.6,0-3.9,0.9-4.1,2.6v0.3c0,0.6,0.2,1.2,0.7,1.6
				C161.6,38.2,162.3,38.4,162.9,38.3L162.9,38.3z"/>
			<path id="Tracé_15" class="st2" d="M180.2,22.8l0.2,2.2c1.3-1.7,3.4-2.6,5.5-2.6c1.7-0.1,3.4,0.5,4.5,1.8
				c1.1,1.5,1.6,3.4,1.5,5.3v12.3h-5.1V29.7c0.1-0.8-0.2-1.7-0.7-2.4c-0.7-0.5-1.5-0.8-2.3-0.7c-1.3-0.1-2.6,0.7-3.2,1.8v13.5h-5.1
				V22.8L180.2,22.8z"/>
			<path id="Tracé_16" class="st2" d="M218.4,35.2c0.1-0.9-0.3-1.8-1.1-2.3c-1.2-0.8-2.5-1.3-3.8-1.7c-1.5-0.5-3-1-4.4-1.8
				c-2.9-1.6-4.4-3.7-4.4-6.4c0-1.3,0.4-2.6,1.2-3.7c0.9-1.1,2-2,3.4-2.5c1.6-0.6,3.2-0.9,4.9-0.9c1.7,0,3.4,0.3,4.9,1
				c1.4,0.6,2.5,1.6,3.3,2.8c0.8,1.2,1.2,2.7,1.2,4.1h-5.3c0.1-1-0.4-2-1.1-2.7c-0.9-0.7-2-1.1-3.1-1c-1.1-0.1-2.1,0.2-3,0.8
				c-0.7,0.5-1.1,1.3-1.1,2.2c0,0.9,0.5,1.7,1.3,2.1c1.2,0.7,2.4,1.2,3.7,1.6c2.4,0.6,4.7,1.7,6.6,3.4c1.4,1.3,2.1,3.1,2.1,5
				c0.1,2.1-0.8,4-2.5,5.2c-2,1.4-4.4,2-6.8,1.9c-1.9,0-3.7-0.4-5.4-1.1c-1.5-0.6-2.8-1.7-3.7-3c-0.9-1.3-1.3-2.8-1.3-4.4h5.3
				c0,2.8,1.7,4.3,5.1,4.3c1,0.1,2.1-0.2,2.9-0.8C218,36.8,218.4,36,218.4,35.2z"/>
			<path id="Tracé_17" class="st2" d="M234.9,38.1c0.8,0,1.6-0.2,2.3-0.8c0.6-0.5,0.9-1.3,0.9-2.1h4.8c0,1.3-0.4,2.5-1.1,3.6
				c-0.7,1.1-1.7,2-2.8,2.5c-1.2,0.6-2.6,0.9-4,0.9c-2.4,0.1-4.8-0.8-6.5-2.6c-1.7-2-2.5-4.6-2.4-7.2v-0.3c-0.1-2.6,0.7-5.1,2.3-7
				c1.7-1.8,4-2.7,6.4-2.6c2.1-0.1,4.2,0.6,5.7,2c1.5,1.4,2.3,3.4,2.2,5.5h-4.8c0-0.9-0.3-1.8-0.9-2.4c-0.6-0.6-1.5-1-2.3-0.9
				c-1.1-0.1-2.1,0.4-2.7,1.3c-0.7,1.3-1,2.7-0.9,4.2v0.5c-0.1,1.5,0.2,2.9,0.9,4.2C232.8,37.8,233.8,38.2,234.9,38.1z"/>
			<path id="Tracé_18" class="st2" d="M250.8,24.9c1.2-1.6,3.1-2.5,5.1-2.4c4.1,0,6.2,2.4,6.3,7.2v12.2h-5.1v-12
				c0.1-0.9-0.2-1.7-0.7-2.4c-0.6-0.6-1.5-0.9-2.3-0.8c-1.3-0.1-2.6,0.6-3.2,1.7v13.5h-5.1V14.8h5.1V24.9z"/>
			<path id="Tracé_19" class="st2" d="M273.1,34.7l3.5-11.9h5.5l-7.7,22.1l-0.4,1c-0.9,2.3-3.2,3.8-5.6,3.7c-0.8,0-1.5-0.1-2.3-0.3
				v-3.9h0.8c0.7,0.1,1.5-0.1,2.2-0.4c0.5-0.3,0.9-0.9,1.1-1.5l0.6-1.6l-6.7-19.1h5.5L273.1,34.7z"/>
			<path id="Tracé_20" class="st2" d="M288.8,22.8L289,25c1.3-1.7,3.4-2.6,5.5-2.6c1.7-0.1,3.4,0.5,4.5,1.8
				c1.1,1.6,1.6,3.4,1.5,5.3v12.3h-5.1V29.7c0.1-0.8-0.2-1.7-0.7-2.4c-0.7-0.6-1.5-0.8-2.3-0.7c-1.3-0.1-2.6,0.7-3.2,1.8v13.5H284
				V22.8L288.8,22.8z"/>
			<path id="Tracé_21" class="st2" d="M314.7,36.6c0-0.6-0.4-1.2-0.9-1.5c-0.9-0.5-2-0.8-3-1c-4.5-1-6.8-2.9-6.8-5.8
				c0-1.7,0.8-3.3,2.1-4.2c1.6-1.2,3.5-1.8,5.5-1.7c2.1-0.1,4.1,0.5,5.8,1.7c1.4,1,2.2,2.7,2.2,4.5h-5.1c0-0.7-0.2-1.3-0.7-1.8
				c-1.2-0.9-2.9-1-4.2-0.1c-0.5,0.4-0.7,0.9-0.7,1.5c0,0.6,0.3,1.1,0.8,1.4c0.8,0.5,1.8,0.8,2.7,0.9c1.1,0.2,2.2,0.5,3.2,0.9
				c2.7,1,4,2.7,4,5.1c0,1.7-0.8,3.3-2.1,4.3c-1.7,1.1-3.7,1.7-5.8,1.6c-1.5,0-2.9-0.3-4.2-0.9c-1.2-0.5-2.2-1.3-3-2.3
				c-0.7-0.9-1-2.1-1-3.2h4.8c0,0.8,0.4,1.6,1,2.1c0.7,0.5,1.6,0.8,2.5,0.7c0.8,0,1.6-0.1,2.2-0.6C314.5,37.7,314.7,37.2,314.7,36.6
				z"/>
		</g>
		<g id="Groupe_11">
			<path id="Tracé_22" class="st2" d="M109.3,67.9l1.9-9.5h2.2l-2.9,12.7h-2.1l-2.4-9.2l-2.5,9.2h-2.1l-2.9-12.7h2.2l2,9.5l2.4-9.5
				h1.8L109.3,67.9z"/>
			<path id="Tracé_23" class="st2" d="M122.5,65.4h-5.2v3.9h6v1.8h-8.3V58.4h8.2v1.8h-6v3.5h5.2L122.5,65.4z"/>
			<path id="Tracé_24" class="st2" d="M125.2,71.1V58.4h4.3c1.2-0.1,2.3,0.2,3.3,0.9c0.8,0.6,1.2,1.6,1.1,2.6
				c0,0.6-0.2,1.1-0.5,1.6c-0.3,0.5-0.8,0.9-1.4,1.1c0.6,0.1,1.2,0.5,1.6,1c0.4,0.5,0.6,1.2,0.6,1.8c0.1,1.1-0.4,2.1-1.1,2.8
				c-0.9,0.7-2.1,1.1-3.2,1H125.2z M127.4,63.8h2.2c0.6,0,1.1-0.1,1.6-0.5c0.4-0.3,0.6-0.8,0.6-1.3c0-0.5-0.1-1-0.5-1.4
				c-0.5-0.3-1.1-0.5-1.7-0.4h-2.1L127.4,63.8z M127.4,65.4v4h2.5c0.6,0,1.2-0.1,1.6-0.5c0.8-0.8,0.8-2.1-0.1-2.9
				c-0.3-0.3-0.6-0.4-0.9-0.5c-0.1,0-0.3,0-0.4,0H127.4z"/>
			<path id="Tracé_25" class="st2" d="M140.5,67.6c0-0.6,0.1-1.1,0.4-1.6c0.5-0.7,1.2-1.3,1.9-1.7c-0.4-0.5-0.7-1-1-1.6
				c-0.2-0.4-0.3-0.8-0.3-1.3c0-0.9,0.3-1.7,0.9-2.3c0.7-0.6,1.5-0.9,2.4-0.9c0.8,0,1.6,0.3,2.3,0.8c0.6,0.5,0.9,1.2,0.9,2
				c0,0.5-0.1,1-0.4,1.5c-0.3,0.5-0.8,1-1.3,1.3l-0.9,0.6l2.4,2.9c0.4-0.7,0.5-1.5,0.5-2.3h1.8c0.1,1.4-0.3,2.7-1.1,3.8l1.9,2.2
				h-2.4l-0.7-0.8c-0.9,0.7-2.1,1-3.2,1c-1.1,0.1-2.2-0.3-3-1C140.9,69.6,140.5,68.6,140.5,67.6z M144.7,69.5c0.7,0,1.4-0.3,2-0.7
				l-2.7-3.3l-0.3,0.2c-0.6,0.4-1,1.1-1,1.8c0,0.5,0.2,1,0.6,1.4C143.7,69.4,144.2,69.6,144.7,69.5L144.7,69.5z M143.5,61.4
				c0.1,0.7,0.4,1.3,0.9,1.8l1-0.7l0.3-0.2c0.4-0.3,0.6-0.8,0.5-1.2c0-0.3-0.1-0.6-0.4-0.8c-0.3-0.2-0.6-0.4-0.9-0.4
				c-0.4,0-0.8,0.1-1,0.4C143.7,60.6,143.5,61,143.5,61.4L143.5,61.4z"/>
			<path id="Tracé_26" class="st2" d="M166.7,69.4c-0.5,0.6-1.2,1.1-1.9,1.4c-0.9,0.3-1.8,0.5-2.8,0.5c-1,0-2-0.2-2.8-0.7
				c-0.8-0.5-1.5-1.2-1.9-2c-0.5-1-0.7-2.1-0.7-3.1v-1c-0.1-1.6,0.4-3.2,1.4-4.5c1-1.1,2.4-1.7,3.8-1.6c1.2-0.1,2.4,0.3,3.4,1
				c0.9,0.8,1.4,1.9,1.5,3h-2.1c-0.1-1.3-1.2-2.3-2.5-2.2h-0.1c-0.9-0.1-1.8,0.3-2.3,1.1c-0.6,0.9-0.8,2-0.8,3.1v1
				c-0.1,1.1,0.2,2.3,0.9,3.2c0.6,0.8,1.5,1.2,2.4,1.1c0.9,0.1,1.7-0.2,2.4-0.8v-2.5h-2.6v-1.7h4.8L166.7,69.4z"/>
			<path id="Tracé_27" class="st2" d="M173.8,66.2h-2.5v4.9h-2.2V58.4h4.5c1.2-0.1,2.4,0.3,3.4,1c1.4,1.3,1.6,3.4,0.6,5
				c-0.4,0.6-1,1-1.7,1.3l2.8,5.3v0.1h-2.3L173.8,66.2z M171.4,64.4h2.3c0.6,0,1.2-0.2,1.7-0.6c0.4-0.4,0.6-1,0.6-1.5
				c0-0.6-0.2-1.2-0.6-1.6c-0.5-0.4-1.1-0.6-1.7-0.6h-2.3L171.4,64.4z"/>
			<path id="Tracé_28" class="st2" d="M187.4,68.1h-4.9l-1,2.9h-2.3l4.8-12.7h2l4.7,12.7h-2.3L187.4,68.1z M183.1,66.3h3.7
				l-1.8-5.2L183.1,66.3z"/>
			<path id="Tracé_29" class="st2" d="M194.5,66.4v4.7h-2.2V58.4h4.9c1.2-0.1,2.4,0.3,3.4,1.1c0.8,0.7,1.3,1.8,1.2,2.9
				c0.1,1.1-0.4,2.2-1.2,2.9c-1,0.7-2.2,1.1-3.4,1L194.5,66.4z M194.5,64.6h2.7c0.6,0,1.3-0.1,1.8-0.6c0.4-0.4,0.7-1,0.6-1.6
				c0-0.6-0.2-1.2-0.6-1.6c-0.5-0.4-1.1-0.7-1.7-0.6h-2.7L194.5,64.6z"/>
			<path id="Tracé_30" class="st2" d="M213.7,71.1h-2.2v-5.6h-5.7v5.6h-2.2V58.4h2.2v5.3h5.7v-5.3h2.2L213.7,71.1z"/>
			<path id="Tracé_31" class="st2" d="M218.7,71.1h-2.2V58.4h2.2V71.1z"/>
			<path id="Tracé_32" class="st2" d="M231.2,66.9c-0.1,1.2-0.6,2.3-1.5,3.2c-1,0.8-2.2,1.2-3.5,1.1c-0.9,0-1.9-0.2-2.7-0.7
				c-0.8-0.5-1.4-1.2-1.8-2c-0.4-0.9-0.6-2-0.7-3v-1.3c0-1.1,0.2-2.2,0.6-3.2c0.4-0.9,1-1.6,1.8-2.1c0.8-0.5,1.8-0.8,2.7-0.7
				c1.2-0.1,2.4,0.3,3.4,1.1c0.9,0.8,1.5,2,1.5,3.2H229c0-0.7-0.3-1.5-0.8-2c-0.5-0.4-1.2-0.7-1.9-0.6c-0.9-0.1-1.7,0.3-2.2,1
				c-0.6,0.9-0.8,2-0.8,3.1v1.1c-0.1,1.1,0.2,2.2,0.7,3.1c0.4,0.7,1.2,1.2,2.1,1.2c0.7,0.1,1.4-0.2,1.9-0.6c0.5-0.5,0.8-1.2,0.8-1.9
				H231.2z"/>
			<path id="Tracé_33" class="st2" d="M237.7,71.1V58.4h3.7c1.1,0,2.1,0.2,3,0.7c0.9,0.5,1.6,1.2,2,2.1c0.5,1,0.7,2.1,0.7,3.1v0.7
				c0,1.1-0.2,2.2-0.7,3.2c-0.4,0.9-1.1,1.6-2,2.1c-0.9,0.5-2,0.7-3,0.7L237.7,71.1z M239.9,60.2v9.1h1.4c1,0.1,2-0.3,2.7-1.1
				c0.7-0.9,1-2,0.9-3.1v-0.7c0.1-1.1-0.2-2.2-0.9-3.1c-0.6-0.8-1.6-1.2-2.6-1.1H239.9z"/>
			<path id="Tracé_34" class="st2" d="M256.8,65.4h-5.2v3.9h6.1v1.8h-8.3V58.4h8.2v1.8h-6v3.5h5.2L256.8,65.4z"/>
			<path id="Tracé_35" class="st2" d="M266.1,67.8c0-0.5-0.2-1-0.6-1.3c-0.6-0.4-1.4-0.7-2.1-0.9c-0.8-0.2-1.7-0.6-2.4-1
				c-1.1-0.6-1.7-1.7-1.7-2.9c0-1,0.5-1.9,1.2-2.5c0.9-0.7,2.1-1.1,3.2-1c0.8,0,1.6,0.2,2.4,0.5c0.6,0.3,1.2,0.8,1.6,1.4
				c0.4,0.6,0.6,1.3,0.6,2h-2.2c0-0.6-0.2-1.2-0.6-1.6c-0.5-0.4-1.1-0.6-1.8-0.6c-0.6,0-1.2,0.1-1.7,0.5c-0.4,0.3-0.6,0.8-0.6,1.3
				c0,0.5,0.2,0.9,0.6,1.2c0.7,0.4,1.4,0.7,2.1,0.9c0.8,0.2,1.6,0.6,2.4,1c0.5,0.3,1,0.8,1.3,1.3c0.3,0.5,0.4,1.1,0.4,1.7
				c0,1-0.4,1.9-1.2,2.5c-1,0.7-2.1,1-3.3,0.9c-0.9,0-1.7-0.2-2.5-0.5c-0.7-0.3-1.3-0.8-1.8-1.4c-0.4-0.6-0.7-1.3-0.6-2.1h2.2
				c0,0.6,0.2,1.3,0.7,1.7c0.6,0.4,1.3,0.6,2,0.6c0.6,0,1.2-0.1,1.7-0.5C265.9,68.7,266.1,68.3,266.1,67.8z"/>
			<path id="Tracé_36" class="st2" d="M272.7,71.1h-2.2V58.4h2.2V71.1z"/>
			<path id="Tracé_37" class="st2" d="M285.1,69.4c-0.5,0.6-1.2,1.1-1.9,1.4c-0.9,0.3-1.8,0.5-2.8,0.5c-1,0-2-0.2-2.8-0.7
				c-0.8-0.5-1.5-1.2-1.9-2c-0.5-1-0.7-2.1-0.7-3.1v-1c-0.1-1.6,0.4-3.2,1.4-4.5c1-1.1,2.4-1.7,3.8-1.6c1.2-0.1,2.4,0.3,3.4,1
				c0.9,0.8,1.4,1.9,1.5,3H283c-0.1-1.3-1.2-2.4-2.5-2.3c0,0,0,0,0,0h-0.1c-0.9,0-1.7,0.4-2.2,1.1c-0.6,0.9-0.8,2-0.8,3.1v1
				c-0.1,1.1,0.2,2.3,0.9,3.2c0.6,0.8,1.5,1.2,2.4,1.1c0.9,0.1,1.7-0.2,2.4-0.8v-2.5h-2.6v-1.7h4.8L285.1,69.4z"/>
			<path id="Tracé_38" class="st2" d="M297.6,71.1h-2.2l-5.6-9v9h-2.2V58.4h2.2l5.7,9v-9h2.2V71.1z"/>
			<path id="Tracé_39" class="st2" d="M307.7,65.4h-5.2v3.9h6.1v1.8h-8.3V58.4h8.2v1.8h-6v3.5h5.2L307.7,65.4z"/>
			<path id="Tracé_40" class="st2" d="M315.1,66.2h-2.4v4.9h-2.2V58.4h4.4c1.2-0.1,2.4,0.3,3.4,1c0.8,0.7,1.3,1.7,1.2,2.8
				c0,0.8-0.2,1.5-0.6,2.1c-0.4,0.6-1,1-1.7,1.3l2.8,5.3v0.2h-2.3L315.1,66.2z M312.6,64.4h2.3c0.6,0,1.2-0.2,1.7-0.6
				c0.4-0.4,0.7-1,0.6-1.5c0-0.6-0.2-1.1-0.6-1.6c-0.5-0.4-1.1-0.6-1.7-0.6h-2.3L312.6,64.4z"/>
		</g>
	</g>
</g>
</svg>
